<?xml version="1.0" encoding="UTF-8"?>
<svg width="377.6" height="183.1" version="1.1" viewBox="0 0 377.6 183.1" xml:space="preserve" xmlns="http://www.w3.org/2000/svg">
<style type="text/css">
	.st0{fill:#402022;}
	.st1{fill:url(#SVGID_1_);}
	.st2{fill:url(#SVGID_00000112623252272564484280000008909028547883222680_);}
	.st3{fill:url(#SVGID_00000103261079320877339930000015031460421839850679_);}
</style>



<g transform="translate(-383.9,-219.3)">
	<linearGradient id="SVGID_1_" x1="383.91" x2="393.72" y1="303.42" y2="303.42" gradientUnits="userSpaceOnUse">
		<stop stop-color="#FF4F3F" offset="0"/>
		<stop stop-color="#FFD594" offset="1"/>
	</linearGradient>
	<path class="st1" d="m388.8 298.5c-2.7 0-4.9 2.2-4.9 4.9s2.2 4.9 4.9 4.9 4.9-2.2 4.9-4.9-2.2-4.9-4.9-4.9z" fill="url(#SVGID_1_)"/>
	
		<linearGradient id="SVGID_00000048463894097719744710000012322455035860764350_" x1="400.64" x2="761.48" y1="310.78" y2="310.78" gradientUnits="userSpaceOnUse">
		<stop stop-color="#FF4F3F" offset="0"/>
		<stop stop-color="#FFD594" offset="1"/>
	</linearGradient>
	<path d="m441.1 240.8c0-2.7 2.2-4.9 4.9-4.9h16.2c2.7 0 4.9 2.2 4.9 4.9s-2.2 4.9-4.9 4.9h-16.2c-2.7-0.1-4.9-2.2-4.9-4.9zm320.4 91.3c0 3.3-2.7 5.9-6 5.9h-67.5c0.2 1.7 0.3 3.5 0.4 5.2 0 20.6-5.1 40.9-14.9 59l-28.3-27.2c-1.8-1.7-4.6-1.7-6.4 0l-22.4 21.9c-1.6 1.6-4.3 1.6-5.9 0.1l-41.6-39.2c-2.1-1.9-5.3-1.9-7.3 0l-14.7 13.9c-1.8 1.7-4.7 1.7-6.5 0l-2.4-2.3c-1.5-1.4-3.8-1.4-5.3 0l-31.2 30.7c-1.9 1.9-5 1.8-6.9-0.1l-15.8-16.1-0.1-0.1c-1.7-1.7-4.5-1.6-6.2 0.1l-17.2 17.8c-9.7-17.9-14.9-38-15-58.4 0.1-10.2 1.4-20.4 4-30.3 0.4-1.6 0.8-3.1 1.3-4.6h-40c-2.7 0-4.9-2.2-4.9-4.9s2.2-4.9 4.9-4.9h43.4c-1.2 3.2-2.3 6.5-3.3 9.8h45.3c2.3 0 4.2-1.6 4.8-3.7v-0.8c0-0.8-0.1-1.7-0.3-2.4-0.8-1.7-2.5-2.9-4.4-2.9h-42.1c0.4-1 0.8-2.1 1.2-3.2 0 0 0-0.1 0.1-0.1 0.1-0.2 0.2-0.5 0.3-0.7 8.4-19.2 21.5-36.1 38.1-48.9h-9.3c-2.7 0-4.9-2.2-4.9-4.9s2.2-4.9 4.9-4.9h23.9c-5.1 2.9-10 6.2-14.6 9.8h84.2c2.7 0.1 5-2.1 5-4.9s-2.3-5-5-4.9h-69.5c18.6-10.7 39.6-16.4 61-16.6 32.9 0.1 64.4 13.3 87.5 36.6 1 1 2 2.1 3 3.1h-58.9c-2.7 0-4.9 2.2-4.9 4.9s2.2 4.9 4.9 4.9h67.1c0.7 1 1.5 2 2.2 3 8 11.1 14 23.4 18 36.5h32.5c3.3 0 5.9 2.7 6 5.9 0 3.3-2.7 6-6 6h-29.9c0.4 1.9 0.8 3.9 1.2 5.8h68.4c3.4 0.1 6 2.8 6 6.1zm-75.6-11.9c-0.7-4-1.5-8-2.6-11.9h-122.2c-3.3 0-5.9 2.7-6 5.9 0 3.3 2.7 6 6 6zm2 17.9c-0.1-4-0.4-8-0.9-12h-86.2c-3.4 0-6.1 2.7-6.1 6.1 0 3.3 2.7 6 6.1 5.9z" fill="url(#SVGID_00000048463894097719744710000012322455035860764350_)"/>
</g>
<linearGradient id="SVGID_00000110454678820637754710000014645973721723054512_" x1="572.44" x2="572.99" y1="402.04" y2="219.32" gradientTransform="translate(-383.9,-219.3)" gradientUnits="userSpaceOnUse">
	<stop stop-color="#E88B5B" offset="0"/>
	<stop stop-color="#FF6355" offset="1"/>
</linearGradient>
<path d="m57.2 21.5c0-2.7 2.2-4.9 4.9-4.9h16.2c2.7 0 4.9 2.2 4.9 4.9s-2.2 4.9-4.9 4.9h-16.2c-2.7-0.1-4.9-2.2-4.9-4.9zm-52.3 57.7c-2.7 0-4.9 2.2-4.9 4.9s2.2 4.9 4.9 4.9 4.9-2.2 4.9-4.9-2.2-4.9-4.9-4.9zm366.7 27.6h-68.4c-0.4-2-0.8-3.9-1.2-5.8h29.9c3.3 0 6-2.7 6-6s-2.7-5.9-6-5.9h-32.5c-3.9-13.1-10-25.4-18-36.5-0.7-1-1.4-2-2.2-3h-67.1c-2.7 0-4.9-2.2-4.9-4.9s2.2-4.9 4.9-4.9h58.9c-1-1.1-2-2.1-3-3.1-23.2-23.3-54.6-36.5-87.5-36.6-21.4 0.2-42.4 5.9-61 16.6h69.5c2.8-0.1 5 2.2 5 4.9s-2.3 4.9-5 4.9h-84.2c4.6-3.6 9.5-6.9 14.6-9.8h-23.9c-2.7 0-4.9 2.2-4.9 4.9s2.2 4.9 4.9 4.9h9.3c-16.6 12.8-29.7 29.6-38.1 48.9-0.1 0.2-0.2 0.5-0.3 0.7 0 0 0 0.1-0.1 0.1-0.4 1.1-0.8 2.1-1.2 3.2h42c2 0 3.7 1.2 4.4 2.9 0.2 0.8 0.3 1.6 0.3 2.4v0.8c-0.5 2.1-2.5 3.7-4.8 3.7h-45.4c1-3.3 2.1-6.6 3.3-9.8h-43.4c-2.7 0-4.9 2.2-4.9 4.9s2.2 4.9 4.9 4.9h40c-0.4 1.5-0.9 3.1-1.3 4.6-2.6 9.9-3.9 20.1-4 30.3 0.1 20.4 5.3 40.5 15 58.4l17.2-17.8c1.7-1.7 4.5-1.8 6.2-0.1l0.1 0.1 15.8 16.1c1.9 1.9 4.9 1.9 6.9 0.1l31.2-30.7c1.5-1.4 3.8-1.4 5.3 0l2.4 2.3c1.8 1.8 4.7 1.8 6.5 0l14.7-13.9c2-1.9 5.3-1.9 7.3 0l41.6 39.2c1.7 1.6 4.3 1.6 5.9-0.1l22.4-21.9c1.8-1.7 4.6-1.7 6.4 0l28.2 27.3c9.8-18.1 14.9-38.4 14.9-59-0.1-1.7-0.2-3.5-0.4-5.2h67.6c3.3 0 5.9-2.7 6-5.9 0.2-3.5-2.4-6.2-5.8-6.2zm-194.4-5.9c-3.3 0-6-2.7-6-6s2.7-5.9 6-5.9h122.2c1.1 3.9 1.9 7.9 2.6 11.9zm39.8 17.9c-3.3 0-6-2.6-6.1-5.9-0.1-3.4 2.7-6.1 6.1-6.1h86.2c0.5 4 0.8 8 0.9 12z" fill="url(#SVGID_00000110454678820637754710000014645973721723054512_)"/>
</svg>
